<svg xmlns="http://www.w3.org/2000/svg" id="Layer_1" viewBox="0 0 45 45" aria-hidden="true"><style>.st0{fill:none;stroke:#0065ff;stroke-width:2}</style><g transform="translate(1 1)"><ellipse class="st0" cx="22.5" cy="9.5" rx="13" ry="7"></ellipse><path class="st0" d="M9.5 9.5v8.1c0 3.8 5.8 6.9 13 6.9s13-3.1 13-6.9V9.5"></path><path class="st0" d="M35.5 9.5v8.1c0 3.8-5.8 6.9-13 6.9s-13-3.1-13-6.9V9.5c0 3.8 5.8 6.9 13 6.9s13-3.1 13-6.9z"></path><path class="st0" d="M35.5 17.5v8.1c0 3.8-5.8 6.9-13 6.9s-13-3.1-13-6.9v-8.1c0 3.8 5.8 6.9 13 6.9s13-3.1 13-6.9z"></path><path class="st0" d="M35.5 25.5v8.1c0 3.8-5.8 6.9-13 6.9s-13-3.1-13-6.9v-8.1c0 3.8 5.8 6.9 13 6.9s13-3.1 13-6.9z"></path></g></svg>