<?xml version="1.0" encoding="UTF-8" standalone="no"?>
<!-- Generator: Adobe Illustrator 19.0.0, SVG Export Plug-In . SVG Version: 6.00 Build 0)  -->

<svg
   xmlns:dc="http://purl.org/dc/elements/1.1/"
   xmlns:cc="http://creativecommons.org/ns#"
   xmlns:rdf="http://www.w3.org/1999/02/22-rdf-syntax-ns#"
   xmlns:svg="http://www.w3.org/2000/svg"
   xmlns="http://www.w3.org/2000/svg"
   xmlns:sodipodi="http://sodipodi.sourceforge.net/DTD/sodipodi-0.dtd"
   xmlns:inkscape="http://www.inkscape.org/namespaces/inkscape"
   version="1.1"
   id="Layer_1"
   x="0px"
   y="0px"
   viewBox="0 0 512 512"
   style="enable-background:new 0 0 512 512;"
   xml:space="preserve"
   sodipodi:docname="logo2.svg"
   inkscape:version="0.92.3 (2405546, 2018-03-11)"><metadata
   id="metadata55"><rdf:RDF><cc:Work
       rdf:about=""><dc:format>image/svg+xml</dc:format><dc:type
         rdf:resource="http://purl.org/dc/dcmitype/StillImage" /><dc:title></dc:title></cc:Work></rdf:RDF></metadata><defs
   id="defs53" /><sodipodi:namedview
   pagecolor="#ffffff"
   bordercolor="#666666"
   borderopacity="1"
   objecttolerance="10"
   gridtolerance="10"
   guidetolerance="10"
   inkscape:pageopacity="0"
   inkscape:pageshadow="2"
   inkscape:window-width="1325"
   inkscape:window-height="711"
   id="namedview51"
   showgrid="false"
   inkscape:zoom="0.4609375"
   inkscape:cx="256"
   inkscape:cy="-59.464172"
   inkscape:window-x="0"
   inkscape:window-y="29"
   inkscape:window-maximized="1"
   inkscape:current-layer="Layer_1" />
<circle
   style="fill:#268596;fill-opacity:1"
   cx="256"
   cy="256"
   r="256"
   id="circle2" />
<path
   style="fill:#0a1d4b;fill-opacity:1"
   d="M 276.372,517.464 C 410.126,509.018 516,397.883 516,262 c 0,-1.234 -0.029,-2.463 -0.047,-3.694 l -118.93,-118.931 -81.282,147.334 7.758,7.758 -185.016,85.107 z"
   id="path4"
   inkscape:connector-curvature="0" />
<path
   style="fill:#FEE187;"
   d="M148.773,380.887h214.454c9.754,0,17.66-7.908,17.66-17.66V179.995c0-9.754-7.908-17.66-17.66-17.66  H148.773c-9.754,0-17.66,7.908-17.66,17.66v183.232C131.112,372.981,139.019,380.887,148.773,380.887z"
   id="path6" />
<g
   id="g12">
	<path
   style="fill:#ffae1b;fill-opacity:1"
   d="M363.227,162.335H254.852v218.553h108.375c9.754,0,17.661-7.908,17.661-17.661V179.995   C380.887,170.241,372.981,162.335,363.227,162.335z"
   id="path8" />
	<path
   style="fill:#FFC61B;"
   d="M386.801,193.557H125.199c-5.356,0-9.697-4.343-9.697-9.697V140.81c0-5.356,4.343-9.697,9.697-9.697   h261.603c5.356,0,9.697,4.343,9.697,9.697v43.049C396.498,189.214,392.156,193.557,386.801,193.557z"
   id="path10" />
</g>
<path
   style="fill:#e06b12;fill-opacity:1"
   d="M386.801,131.113H254.852v62.443h131.949c5.356,0,9.697-4.341,9.697-9.697V140.81  C396.498,135.454,392.156,131.113,386.801,131.113z"
   id="path14" />
<path
   style="fill:#FFC61B;"
   d="M283.91,256h-55.82c-8.621,0-15.612-6.989-15.612-15.612l0,0c0-8.621,6.989-15.612,15.612-15.612  h55.82c8.621,0,15.612,6.989,15.612,15.612l0,0C299.522,249.011,292.531,256,283.91,256z"
   id="path16" />
<path
   style="fill:#e06b12;fill-opacity:1"
   d="M283.91,224.778h-29.06V256h29.06c8.621,0,15.612-6.989,15.612-15.612l0,0  C299.522,231.767,292.531,224.778,283.91,224.778z"
   id="path18" />
<g
   id="g20">
</g>
<g
   id="g22">
</g>
<g
   id="g24">
</g>
<g
   id="g26">
</g>
<g
   id="g28">
</g>
<g
   id="g30">
</g>
<g
   id="g32">
</g>
<g
   id="g34">
</g>
<g
   id="g36">
</g>
<g
   id="g38">
</g>
<g
   id="g40">
</g>
<g
   id="g42">
</g>
<g
   id="g44">
</g>
<g
   id="g46">
</g>
<g
   id="g48">
</g>
</svg>